<svg width="21" height="25" viewBox="0 0 21 25" fill="none" xmlns="http://www.w3.org/2000/svg">
<path d="M10.5 -7.95017e-05C8.33799 -0.00629868 6.22903 0.669083 4.47285 1.93008C2.71667 3.19107 1.40262 4.97352 0.717463 7.02409C0.0323046 9.07466 0.0108979 11.289 0.656285 13.3524C1.30167 15.4159 2.58102 17.2234 4.31249 18.5181V22.6874C4.31234 22.9583 4.36558 23.2266 4.46918 23.4769C4.57277 23.7272 4.72469 23.9546 4.91624 24.1462C5.10779 24.3377 5.33522 24.4896 5.58552 24.5932C5.83583 24.6968 6.1041 24.7501 6.37499 24.7499H14.625C14.8959 24.7501 15.1642 24.6968 15.4145 24.5932C15.6648 24.4896 15.8922 24.3377 16.0837 24.1462C16.2753 23.9546 16.4272 23.7272 16.5308 23.4769C16.6344 23.2266 16.6876 22.9583 16.6875 22.6874V18.5181C18.419 17.2234 19.6983 15.4159 20.3437 13.3524C20.9891 11.289 20.9677 9.07466 20.2825 7.02409C19.5974 4.97352 18.2833 3.19107 16.5271 1.93008C14.7709 0.669083 12.662 -0.00629868 10.5 -7.95017e-05Z" fill="black"/>
</svg>
