<svg width="40" height="20" viewBox="0 0 40 20" fill="none" xmlns="http://www.w3.org/2000/svg">
<path d="M10.4167 19.5833L29.5834 19.5833C32.125 19.5833 34.5626 18.5736 36.3598 16.7764C38.157 14.9792 39.1667 12.5416 39.1667 9.99998C39.1667 7.45832 38.157 5.02077 36.3598 3.22354C34.5626 1.42632 32.125 0.416649 29.5834 0.416649L10.4167 0.416649C7.87503 0.416649 5.43747 1.42632 3.64025 3.22354C1.84302 5.02077 0.833351 7.45832 0.833351 9.99998C0.833351 12.5416 1.84302 14.9792 3.64025 16.7764C5.43747 18.5736 7.87503 19.5833 10.4167 19.5833ZM10.4167 4.24998C11.9417 4.24998 13.4042 4.85578 14.4826 5.93412C15.5609 7.01245 16.1667 8.47499 16.1667 9.99998C16.1667 11.525 15.5609 12.9875 14.4826 14.0658C13.4042 15.1442 11.9417 15.75 10.4167 15.75C8.89169 15.75 7.42916 15.1442 6.35082 14.0658C5.27249 12.9875 4.66669 11.525 4.66669 9.99998C4.66669 8.47499 5.27249 7.01245 6.35082 5.93412C7.42916 4.85578 8.89169 4.24998 10.4167 4.24998Z" fill="#17B899"/>
</svg>
